<svg width="64" height="64" viewBox="0 0 64 64" fill="none" xmlns="http://www.w3.org/2000/svg">
<path d="M54.3604 45.8182V45.7143C54.3604 45.7143 54.3604 45.7143 54.3604 45.6104L48.2342 19.9481V5.61039C48.2342 2.49351 45.7838 0 42.7207 0H21.0751C18.012 0 15.5616 2.49351 15.5616 5.61039V19.9481L9.43545 45.6104C9.43545 45.7143 9.33334 45.9221 9.33334 46.026V62.1299C9.33334 63.1688 10.1502 64 11.1712 64C12.1922 64 13.009 63.1688 13.009 62.1299V59.2208C13.4174 58.0779 19.5436 55.2727 32 55.2727C44.4565 55.2727 50.5826 58.1818 50.991 59.2208V62.1299C50.991 63.1688 51.8078 64 52.8288 64C53.8499 64 54.6667 63.1688 54.6667 62.1299V46.1299C54.4625 46.026 54.3604 45.9221 54.3604 45.8182ZM18.7267 22.026H44.967L50.2763 44.2597H13.4174L18.7267 22.026ZM19.1351 5.61039C19.1351 4.57143 19.952 3.63636 21.0751 3.63636H42.7207C43.7417 3.63636 44.6607 4.46753 44.6607 5.61039V18.3896H19.1351V5.61039ZM31.8979 51.6364C26.1802 51.6364 17.7057 52.3636 12.9069 54.7532V47.8961H50.7868V54.7532C46.0901 52.3636 37.6156 51.6364 31.8979 51.6364Z" fill="#52503B"/>
</svg>
