<svg width="64" height="64" viewBox="0 0 64 64" fill="none" xmlns="http://www.w3.org/2000/svg">
<path d="M48.7044 0C51.8911 0 54.5639 2.60163 54.6666 5.93171V57.9642C54.6666 61.2943 51.9939 64 48.7044 64H15.2955C12.006 64 9.33331 61.2943 9.33331 57.9642V5.93171C9.33331 2.60163 12.006 0 15.1927 0H48.7044ZM48.6016 3.53821H15.1927C13.8564 3.53821 12.8284 4.68293 12.8284 5.93171V57.9642C12.8284 59.3171 13.9592 60.3577 15.1927 60.3577H48.6016C49.938 60.3577 50.966 59.213 50.966 57.9642V5.93171C50.966 4.57886 49.8352 3.53821 48.6016 3.53821ZM43.1534 27.7854C45.0038 27.7854 46.6485 29.3463 46.6485 31.3236C46.6485 33.3008 45.1066 34.8618 43.1534 34.8618C41.2003 34.8618 39.6583 33.3008 39.6583 31.3236C39.6583 29.3463 41.2003 27.7854 43.1534 27.7854Z" fill="#52503B"/>
</svg>
