<svg width="64" height="64" viewBox="0 0 64 64" fill="none" xmlns="http://www.w3.org/2000/svg">
<path d="M62.1299 29.1512H57.7662H12.2597V8.89217C12.2597 7.52046 13.2987 6.46531 14.6494 6.46531H22.6494V9.52526C20.4675 9.84181 18.7013 11.7411 18.7013 14.0624V18.7051C18.7013 19.7603 19.5325 20.6044 20.5714 20.6044H27.9481C28.987 20.6044 29.8182 19.7603 29.8182 18.7051V14.0624C29.8182 11.9521 28.3636 10.1584 26.3896 9.63078V4.56603C26.3896 3.51087 25.5584 2.66675 24.5195 2.66675H14.6494C11.3247 2.66675 8.62338 5.41015 8.62338 8.78665V29.0456H6.96104H6.23377H1.87013C0.831169 29.0456 0 29.8898 0 30.9449C0 32.0001 0.831169 32.8442 1.87013 32.8442H4.36364V41.2854C4.36364 47.5109 8.93507 52.6811 14.8571 53.5253L12.5714 58.6955C12.1558 59.6452 12.5714 60.7003 13.5065 61.1224C13.7143 61.2279 14.026 61.3334 14.2338 61.3334C14.961 61.3334 15.5844 60.9114 15.8961 60.2783L18.8052 53.7363H47.3766C47.5844 53.7363 47.7922 53.7363 48.1039 53.7363L51.013 60.2783C51.3247 61.0169 51.9481 61.3334 52.6753 61.3334C52.8831 61.3334 53.1948 61.3334 53.4026 61.1224C54.3377 60.7003 54.7532 59.6452 54.3377 58.6955L51.7403 52.8922C56.3117 51.0984 59.6364 46.5612 59.6364 41.2854V32.8442H62.1299C63.1688 32.8442 64 32.0001 64 30.9449C64 29.9953 63.1688 29.1512 62.1299 29.1512ZM26.0779 16.9114H22.3377V14.0624C22.3377 13.5349 22.7532 13.1128 23.2727 13.1128H25.1429C25.6623 13.1128 26.0779 13.5349 26.0779 14.0624V16.9114ZM56 41.2854C56 46.0337 52.1558 50.0432 47.3766 50.0432H16.6234C11.9481 50.0432 8 46.1392 8 41.2854V32.8442H56V41.2854Z" fill="#52503B"/>
</svg>
