<svg width="36" height="36" viewBox="0 0 36 36" fill="none" xmlns="http://www.w3.org/2000/svg">
<path d="M26.2376 23.9806C28.3328 21.7634 29.4103 18.7877 29.2307 15.7536L28.2729 3.20908C28.1532 1.40032 26.5968 0 24.7411 0H11.2724C9.41671 0 7.86033 1.40032 7.74061 3.20908L6.78283 15.7536C6.54339 18.7877 7.62089 21.7634 9.77588 23.9806C11.6316 25.9643 14.2056 27.1896 16.9592 27.423V33.8995H12.29C11.6914 33.8995 11.2125 34.3663 11.2125 34.9498C11.2125 35.5332 11.6914 36 12.29 36H23.7235C24.3221 36 24.801 35.5332 24.801 34.9498C24.801 34.3663 24.3221 33.8995 23.7235 33.8995H19.0543V27.423C21.8079 27.1896 24.3819 25.9643 26.2376 23.9806ZM11.2724 2.04214H24.7411C25.4594 2.04214 26.1179 2.62561 26.1778 3.32577L26.5968 8.57699H9.47657L9.8956 3.32577C9.8956 2.62561 10.5541 2.04214 11.2724 2.04214ZM8.93783 15.8703L9.29699 10.6775H26.7165L27.0757 15.8703C27.2553 18.3793 26.4172 20.7131 24.6812 22.5802C22.9453 24.389 20.5508 25.4392 17.9768 25.4392C15.4028 25.4392 13.0682 24.4473 11.2724 22.5802C9.5963 20.7715 8.75824 18.3793 8.93783 15.8703Z" fill="#52503B"/>
</svg>
