<svg width="36" height="36" viewBox="0 0 36 36" fill="none" xmlns="http://www.w3.org/2000/svg">
<path d="M23.1429 11.3507L23.4085 11.3606C24.6325 11.4526 25.6325 12.1797 26.1234 13.3081L32.961 29.4851H34.9481C35.5325 29.4851 36 29.8881 36 30.4638C36 31.0394 35.5325 31.5 34.9481 31.5H1.05195C0.467533 31.5 0 31.097 0 30.5213C0 29.9456 0.467533 29.4851 1.05195 29.4851H2.33766L8.2987 15.0928C8.76623 13.8838 9.87662 13.1354 11.2208 13.1354C12.5649 13.193 13.6753 13.8838 14.2013 15.0928L16.8896 21.3678L20.2208 13.3081C20.6883 12.0991 21.7987 11.3507 23.1429 11.3507ZM23.1429 13.4232L23.0854 13.4251C22.8637 13.4385 22.3566 13.5384 22.0909 14.1141L17.9416 24.0736L20.2792 29.5426H22.2078V28.161C21.039 27.6429 20.2208 26.2612 20.2208 24.5341C20.2208 22.3465 21.5649 20.677 23.2013 20.677C24.8377 20.677 26.1818 22.4041 26.1818 24.5341C26.1818 26.2612 25.4221 27.6429 24.2532 28.161V29.5426H30.7403L24.1948 14.1141C23.961 13.4808 23.3182 13.4232 23.1429 13.4232ZM11.2208 15.2079C11.0455 15.2079 10.461 15.2655 10.1688 15.8987L4.5 29.5426H18.0584L12.2727 15.8987C12.039 15.2655 11.3961 15.2079 11.2208 15.2079ZM23.2013 22.6343C22.8506 22.6343 22.2662 23.3252 22.2662 24.4765C22.2662 25.6279 22.7922 26.3188 23.2013 26.3188C23.6104 26.3188 24.1364 25.6279 24.1364 24.4765C24.1364 23.3252 23.5519 22.6343 23.2013 22.6343ZM30.7987 4.5C32.8442 4.5 34.4805 6.11194 34.4805 8.12687C34.4805 10.1418 32.7857 11.7537 30.7987 11.7537C28.8117 11.7537 27.1169 10.1418 27.1169 8.12687C27.1169 6.11194 28.7532 4.5 30.7987 4.5ZM30.7987 6.57249C29.9221 6.57249 29.1623 7.26333 29.1623 8.18443C29.1623 9.10554 29.8636 9.79638 30.7987 9.79638C31.7338 9.79638 32.4351 9.10554 32.4351 8.18443C32.4351 7.26333 31.6753 6.57249 30.7987 6.57249Z" fill="#52503B"/>
</svg>
