<svg width="36" height="36" viewBox="0 0 36 36" fill="none" xmlns="http://www.w3.org/2000/svg">
<g clip-path="url(#clip0_1_127)">
<path d="M29.1132 12.1458L29.3079 12.1564C29.7545 12.2056 30.1451 12.4242 30.4012 12.774L33.7968 17.2861C34.148 17.743 34.2066 18.3712 33.9139 18.8853C33.7382 19.1708 33.5041 19.3993 33.2113 19.5706L35.7873 23.8542C36.08 24.3682 36.08 24.9394 35.7287 25.4534C35.4946 25.9674 34.9677 26.253 34.3822 26.253H30.167V31.2219C30.167 31.7931 29.6987 32.25 29.1132 32.25C28.5278 32.25 28.0595 31.7931 28.0595 31.2219V26.253H23.7857C23.2588 26.253 22.7319 25.9103 22.4392 25.4534C22.1465 24.9965 22.1465 24.3682 22.4392 23.9113L25.0152 19.5706C24.7224 19.4564 24.4883 19.1708 24.3126 18.8853C24.0199 18.3712 24.0785 17.743 24.4297 17.2861L27.8253 12.774C28.118 12.3742 28.5864 12.1458 29.1132 12.1458ZM9.6766 3.75C10.2035 3.75 10.6718 3.97846 10.9646 4.37826L16.4677 11.5746C16.819 12.0316 16.8775 12.6598 16.5848 13.1738C16.2921 13.6879 15.7652 14.0306 15.1212 14.0306L19.2778 21.1698C19.5706 21.6268 19.5706 22.255 19.2778 22.7119C19.0437 23.1688 18.5168 23.4544 17.9313 23.4544H10.7889V31.1648C10.7889 31.736 10.3206 32.1929 9.73514 32.1929C9.1497 32.1929 8.68135 31.736 8.68135 31.1648V23.4544H1.59751C1.01207 23.4544 0.48517 23.1117 0.192449 22.5977C-0.100271 22.1408 -0.0417271 21.5125 0.250994 21.0556L4.81744 14.0306H4.29054C3.7051 14.0306 3.1782 13.6879 2.88548 13.1738C2.59276 12.6598 2.6513 12.0316 3.00257 11.5746L8.38863 4.37826C8.68135 3.97846 9.1497 3.75 9.6766 3.75ZM29.0547 14.4304L26.4202 17.9143C26.6544 18.0286 26.8886 18.257 27.0057 18.4855C27.2984 18.9424 27.2984 19.5706 27.0057 20.0276L24.5468 24.1969H33.5626L31.1037 20.0276C30.811 19.5706 30.811 18.9424 31.1037 18.4855C31.2208 18.257 31.455 18.0286 31.6892 17.9143L29.0547 14.4304ZM9.6766 6.09168L5.1687 12.0887H5.57851C6.16395 12.0887 6.74939 12.4314 6.98357 12.8883C7.21774 13.3452 7.21774 13.9734 6.92502 14.4304L2.41713 21.4554H17.0532L12.8965 14.3732C12.6038 13.9163 12.6038 13.2881 12.8965 12.8312C13.1892 12.4314 13.6576 12.0887 14.1845 12.0887L9.6766 6.09168Z" fill="#52503B"/>
</g>
<defs>
<clipPath id="clip0_1_127">
<rect width="36" height="36" fill="white"/>
</clipPath>
</defs>
</svg>
