<svg width="36" height="36" viewBox="0 0 36 36" fill="none" xmlns="http://www.w3.org/2000/svg">
<path d="M33.1948 9C34.7143 9 36 10.26 36 11.82V24.12C36 25.74 34.7143 27 33.1948 27H2.80519C1.28571 27 0.0584416 25.74 0 24.24V11.88C0 10.26 1.28571 9 2.80519 9H33.1948ZM17.0065 21.24H10.5779V24.9H17.0065V21.24ZM25.4805 21.24H19.0519V24.9H25.4805V21.24ZM8.53247 21.24H2.1039V24.18C2.1039 24.6 2.3961 24.9 2.80519 24.9H8.53247V21.24ZM33.8961 21.24H27.4675V24.9H33.1948C33.6039 24.9 33.9545 24.6 33.8961 24.18V21.24ZM33.1948 11.1H2.80519C2.3961 11.1 2.1039 11.4 2.1039 11.82V19.2H33.9545V11.88C33.9545 11.46 33.6039 11.1 33.1948 11.1ZM29.7468 13.98C30.3312 13.98 30.7987 14.46 30.7987 15.06C30.7987 15.66 30.3312 16.14 29.7468 16.14H26.0065C25.4221 16.14 24.9545 15.66 24.9545 15.06C24.9545 14.46 25.4221 13.98 26.0065 13.98H29.7468Z" fill="#52503B"/>
</svg>
