<svg width="36" height="36" viewBox="0 0 36 36" fill="none" xmlns="http://www.w3.org/2000/svg">
<path d="M18.0289 10.5C7.96083 10.5 0 14.7339 0 20.0565C0 20.5403 0.0585355 21.0847 0.234142 21.629C0.585355 22.7177 1.40485 23.5645 2.51703 23.9274C5.50234 24.8952 11.4144 25.5 17.9704 25.5C24.5264 25.5 30.4385 24.8952 33.4238 23.9274C34.536 23.5645 35.3555 22.7177 35.7067 21.6895L35.7652 21.5685C35.8823 21.0242 35.9997 20.5403 35.9997 20.0565C36.0579 14.6734 28.0971 10.5 18.0289 10.5ZM33.8921 20.9637V21.0242C33.775 21.4476 33.4238 21.8105 32.9555 21.9315C30.1458 22.8387 24.2923 23.3831 18.0289 23.3831C11.7656 23.3831 5.91209 22.7782 3.16092 21.9315C2.69264 21.75 2.34142 21.4476 2.22435 21.0242C2.10728 20.7218 2.10728 20.3589 2.10728 20.0565C2.10728 17.9395 4.15602 15.9435 7.37548 14.5524C7.96083 17.1532 9.77544 19.0282 11.9413 19.0282C12.5266 19.0282 12.9949 18.5444 12.9949 17.9395C12.9949 17.3347 12.5266 16.8508 11.9413 16.8508C10.712 16.8508 9.59983 15.5806 9.30715 13.7661C11.0632 13.2218 13.112 12.7984 15.2192 12.6169C15.5705 15.5806 17.3265 18.9677 19.9021 18.9677C20.4874 18.9677 20.9557 18.4839 20.9557 17.879C20.9557 17.2742 20.4874 16.7903 19.9021 16.7903C18.7899 16.7903 17.5607 14.6734 17.268 12.4355C17.5021 12.4355 17.7948 12.4355 18.0289 12.4355C19.785 12.4355 21.5411 12.5565 23.1215 12.8589C23.2386 16.1855 25.3459 18.9073 27.8629 18.9073C28.4483 18.9073 28.9166 18.4234 28.9166 17.8185C28.9166 17.2137 28.4483 16.7298 27.8629 16.7298C26.5166 16.7298 25.4044 15.1573 25.1703 13.2218C30.3214 14.4919 33.9506 17.0323 33.9506 19.875C34.0092 20.3589 33.9506 20.6613 33.8921 20.9637Z" fill="#52503B"/>
</svg>
