<svg width="36" height="36" viewBox="0 0 36 36" fill="none" xmlns="http://www.w3.org/2000/svg">
<path d="M26.6133 0C30.0703 0 32.9414 2.80976 33 6.38049V18.9659C33 20.0195 32.1797 20.839 31.125 20.839H29.8945V33.3073C29.8945 34.7707 28.6641 36 27.1992 36H25.5C24.0352 36 22.8047 34.7707 22.8047 33.3073V1.87317C22.8047 0.819512 23.625 0 24.6797 0H26.6133ZM9.32812 0.0585366C9.91406 0.0585366 10.3828 0.526829 10.3828 1.1122V10.0683H13.6641V1.17073C13.6641 0.585366 14.1328 0.117073 14.7188 0.117073C15.3047 0.117073 15.7148 0.585366 15.7734 1.1122V16.0976C15.7734 16.9756 15.1289 17.6195 14.25 17.6195H12.9023V33.2488C12.9023 34.7122 11.6719 35.9415 10.207 35.9415H8.56641C7.10156 35.9415 5.87109 34.7122 5.87109 33.2488V17.561H4.52344C3.64453 17.561 3 16.9171 3 16.039V1.1122C3 0.585366 3.41016 0.0585366 3.99609 0.0585366C4.58203 0.0585366 5.05078 0.526829 5.05078 1.1122V10.0098H8.27344V1.1122C8.27344 0.526829 8.74219 0.0585366 9.32812 0.0585366ZM27.8438 20.839H24.8555V33.3073C24.8555 33.6585 25.1484 33.9512 25.5 33.9512H27.1992C27.5508 33.9512 27.8438 33.6 27.8438 33.2488V20.839ZM10.8516 17.6195H7.92188V33.3073C7.92188 33.6585 8.21484 33.9512 8.56641 33.9512H10.207C10.5586 33.9512 10.8516 33.6585 10.8516 33.3073V17.6195ZM26.5547 2.04878H24.7969V18.7902H30.8906V6.38049C30.8906 3.98049 28.957 2.04878 26.5547 2.04878ZM13.7227 12.0585H5.05078V15.5707H13.7227V12.0585Z" fill="#52503B"/>
</svg>
